<svg width="20" height="20" viewBox="0 0 20 20" fill="none" xmlns="http://www.w3.org/2000/svg">
<g clip-path="url(#clip0)">
<path d="M6.48438 12.9298H17.0705C17.3326 12.9298 17.5626 12.7565 17.6335 12.5047L19.9774 4.30145C20.0278 4.1246 19.9933 3.93463 19.8824 3.78769C19.7713 3.64121 19.5985 3.55469 19.4142 3.55469H5.13168L4.71283 1.66992C4.65332 1.40152 4.41528 1.21094 4.14062 1.21094H0.585938C0.262146 1.21094 0 1.47308 0 1.79688C0 2.12082 0.262146 2.38281 0.585938 2.38281H3.67035L5.78629 11.9043C5.16373 12.175 4.72656 12.7946 4.72656 13.5158C4.72656 14.485 5.51514 15.2736 6.48438 15.2736H17.0705C17.3944 15.2736 17.6564 15.0116 17.6564 14.6877C17.6564 14.3639 17.3944 14.1017 17.0705 14.1017H6.48438C6.16165 14.1017 5.89844 13.8391 5.89844 13.5158C5.89844 13.1924 6.16165 12.9298 6.48438 12.9298Z" fill="white"/>
<path d="M5.89844 17.0314C5.89844 18.0008 6.68701 18.7892 7.6564 18.7892C8.62564 18.7892 9.41422 18.0008 9.41422 17.0314C9.41422 16.0622 8.62564 15.2736 7.6564 15.2736C6.68701 15.2736 5.89844 16.0622 5.89844 17.0314Z" fill="white"/>
<path d="M14.1409 17.0314C14.1409 18.0008 14.9294 18.7892 15.8987 18.7892C16.8681 18.7892 17.6565 18.0008 17.6565 17.0314C17.6565 16.0622 16.8681 15.2736 15.8987 15.2736C14.9294 15.2736 14.1409 16.0622 14.1409 17.0314Z" fill="white"/>
</g>
<defs>
<clipPath id="clip0">
<rect width="20" height="20" fill="white"/>
</clipPath>
</defs>
</svg>
