<svg width="26" height="26" viewBox="0 0 26 26" fill="none" xmlns="http://www.w3.org/2000/svg">
<path d="M18.8247 0H7.17486C3.21865 0 0 3.2188 0 7.17502V18.8248C0 22.7812 3.21865 25.9998 7.17486 25.9998H18.8247C22.7812 25.9998 25.9998 22.781 25.9998 18.8248V7.17502C26 3.2188 22.7812 0 18.8247 0ZM23.6932 18.8248C23.6932 21.5092 21.5092 23.693 18.8248 23.693H7.17486C4.49063 23.6932 2.30683 21.5092 2.30683 18.8248V7.17502C2.30683 4.49079 4.49063 2.30683 7.17486 2.30683H18.8247C21.5091 2.30683 23.693 4.49079 23.693 7.17502V18.8248H23.6932Z" fill="white"/>
<path d="M13 6.30054C9.30588 6.30054 6.30054 9.30588 6.30054 13C6.30054 16.694 9.30588 19.6992 13 19.6992C16.6942 19.6992 19.6995 16.694 19.6995 13C19.6995 9.30588 16.6942 6.30054 13 6.30054ZM13 17.3922C10.578 17.3922 8.60737 15.4219 8.60737 12.9999C8.60737 10.5777 10.5779 8.60722 13 8.60722C15.4222 8.60722 17.3927 10.5777 17.3927 12.9999C17.3927 15.4219 15.4221 17.3922 13 17.3922Z" fill="white"/>
<path d="M19.9802 4.34473C19.5358 4.34473 19.0992 4.52466 18.7853 4.83993C18.4699 5.15366 18.2886 5.59042 18.2886 6.0364C18.2886 6.48101 18.47 6.91761 18.7853 7.23288C19.099 7.54661 19.5358 7.72808 19.9802 7.72808C20.4262 7.72808 20.8615 7.54661 21.1767 7.23288C21.492 6.91761 21.6719 6.48085 21.6719 6.0364C21.6719 5.59042 21.492 5.15366 21.1767 4.83993C20.863 4.52466 20.4262 4.34473 19.9802 4.34473Z" fill="white"/>
</svg>
