<svg width="29" height="20" viewBox="0 0 29 20" fill="none" xmlns="http://www.w3.org/2000/svg">
<path d="M18.8015 9.89535L28.3636 15.9403V3.59509L18.8015 9.89535Z" fill="white"/>
<path d="M0 3.59509V15.9403L9.56207 9.89535L0 3.59509Z" fill="white"/>
<path d="M26.5909 0.00012207H1.77277C0.888176 0.00012207 0.186177 0.659576 0.0532227 1.50871L14.1818 10.8173L28.3104 1.50871C28.1775 0.659576 27.4755 0.00012207 26.5909 0.00012207Z" fill="white"/>
<path d="M17.1776 10.9662L14.6692 12.6184C14.5203 12.7159 14.3519 12.7638 14.1817 12.7638C14.0115 12.7638 13.8431 12.7159 13.6942 12.6184L11.1858 10.9645L0.0566406 18.004C0.19314 18.846 0.891594 19.5001 1.77264 19.5001H26.5908C27.4718 19.5001 28.1703 18.846 28.3068 18.004L17.1776 10.9662Z" fill="white"/>
</svg>
