<svg width="28" height="28" viewBox="0 0 28 28" fill="none" xmlns="http://www.w3.org/2000/svg">
<g clip-path="url(#clip0)">
<path d="M4.10057 4.10152C6.74481 1.45722 10.2605 0.00100708 14.0001 0.00100708C17.7397 0.00100708 21.2552 1.45722 23.8995 4.10152C26.5437 6.74571 28 10.2614 28 14.0009C28 17.7404 26.5437 21.2562 23.8995 23.9004C21.2552 26.5447 17.7395 28.0009 14 28.0009C10.2604 28.0009 6.74471 26.5446 4.10052 23.9004C1.45627 21.2562 0 17.7404 0 14.0009C0 10.2614 1.45632 6.74571 4.10057 4.10152ZM14.0001 26.3142C20.7896 26.3142 26.3133 20.7905 26.3133 14.0009C26.3133 7.21138 20.7896 1.68768 14.0001 1.68768C7.21059 1.68768 1.68683 7.21143 1.68683 14.0009C1.68683 20.7904 7.21048 26.3142 14.0001 26.3142Z" fill="white"/>
<path d="M6.29704 13.1566H21.7028C22.1686 13.1566 22.5461 13.5343 22.5461 14C22.5461 14.4658 22.1685 14.8433 21.7028 14.8433H6.29704C5.83127 14.8433 5.45371 14.4657 5.45371 14C5.45371 13.5342 5.83127 13.1566 6.29704 13.1566Z" fill="white"/>
<path d="M7.42149 8.51811H20.5783C21.0441 8.51811 21.4216 8.89573 21.4216 9.36145C21.4216 9.82722 21.044 10.2048 20.5783 10.2048H7.42149C6.95572 10.2048 6.5781 9.82722 6.5781 9.36145C6.5781 8.89573 6.95572 8.51811 7.42149 8.51811Z" fill="white"/>
<path d="M7.42149 17.7951H20.5783C21.0441 17.7951 21.4216 18.1727 21.4216 18.6384C21.4216 19.1042 21.044 19.4818 20.5783 19.4818H7.42149C6.95572 19.4818 6.5781 19.1042 6.5781 18.6384C6.5781 18.1727 6.95572 17.7951 7.42149 17.7951Z" fill="white"/>
</g>
<defs>
<clipPath id="clip0">
<rect width="28" height="28" fill="white" transform="matrix(-1 0 0 1 28 0)"/>
</clipPath>
</defs>
</svg>
