<svg width="26" height="26" viewBox="0 0 26 26" fill="none" xmlns="http://www.w3.org/2000/svg">
<g clip-path="url(#clip0)">
<path d="M26 4.93837C25.0331 5.3625 24.0029 5.64362 22.9287 5.78012C24.0337 5.12037 24.8771 4.08362 25.2736 2.834C24.2434 3.44825 23.1059 3.88213 21.8936 4.12425C20.9154 3.08263 19.5211 2.4375 18.0001 2.4375C15.0491 2.4375 12.6734 4.83275 12.6734 7.76912C12.6734 8.19163 12.7091 8.59787 12.7969 8.98462C8.3655 8.7685 4.44438 6.64463 1.81025 3.40925C1.35037 4.20713 1.08063 5.12038 1.08063 6.1035C1.08063 7.9495 2.03125 9.58587 3.44825 10.5332C2.59187 10.517 1.75175 10.2684 1.04 9.87675C1.04 9.893 1.04 9.91412 1.04 9.93525C1.04 12.5255 2.88762 14.677 5.3105 15.1726C4.87663 15.2913 4.40375 15.3481 3.913 15.3481C3.57175 15.3481 3.22725 15.3286 2.90387 15.2571C3.5945 17.368 5.55425 18.9199 7.8845 18.9702C6.071 20.3889 3.76838 21.2436 1.27562 21.2436C0.8385 21.2436 0.41925 21.2241 0 21.1705C2.36112 22.6931 5.15938 23.5625 8.177 23.5625C17.9855 23.5625 23.348 15.4375 23.348 8.39475C23.348 8.15912 23.3399 7.93163 23.3285 7.70575C24.3864 6.955 25.2752 6.01737 26 4.93837Z" fill="white"/>
</g>
<defs>
<clipPath id="clip0">
<rect width="26" height="26" fill="white"/>
</clipPath>
</defs>
</svg>
